<?xml version="1.0" encoding="UTF-8" standalone="no"?>
<!DOCTYPE svg PUBLIC "-//W3C//DTD SVG 1.1//EN"
 "http://www.w3.org/Graphics/SVG/1.1/DTD/svg11.dtd">
<!-- Generated by graphviz version 13.1.0 (20250701.0955)
 -->
<!-- Title: interface/driver_ads1118_interface.h Pages: 1 -->
<svg width="763pt" height="176pt"
 viewBox="0.00 0.00 763.00 176.00" xmlns="http://www.w3.org/2000/svg" xmlns:xlink="http://www.w3.org/1999/xlink">
<g id="graph0" class="graph" transform="scale(1 1) rotate(0) translate(4 172)">
<title>interface/driver_ads1118_interface.h</title>
<!-- Node1 -->
<g id="Node000001" class="node">
<title>Node1</title>
<g id="a_Node000001"><a xlink:title="driver ads1118 interface header file">
<polygon fill="#999999" stroke="#666666" points="462.62,-168 341.62,-168 341.62,-136 462.62,-136 462.62,-168"/>
<text xml:space="preserve" text-anchor="start" x="349.62" y="-154.5" font-family="Helvetica,sans-Serif" font-size="10.00">interface/driver_ads1118</text>
<text xml:space="preserve" text-anchor="middle" x="402.12" y="-142.5" font-family="Helvetica,sans-Serif" font-size="10.00">_interface.h</text>
</a>
</g>
</g>
<!-- Node2 -->
<g id="Node000002" class="node">
<title>Node2</title>
<g id="a_Node000002"><a xlink:href="driver__ads1118__basic_8h.html" target="_top" xlink:title="driver ads1118 basic header file">
<polygon fill="white" stroke="#666666" points="120.25,-100 0,-100 0,-68 120.25,-68 120.25,-100"/>
<text xml:space="preserve" text-anchor="start" x="8" y="-86.5" font-family="Helvetica,sans-Serif" font-size="10.00">example/driver_ads1118</text>
<text xml:space="preserve" text-anchor="middle" x="60.12" y="-74.5" font-family="Helvetica,sans-Serif" font-size="10.00">_basic.h</text>
</a>
</g>
</g>
<!-- Node1&#45;&gt;Node2 -->
<g id="edge1_Node000001_Node000002" class="edge">
<title>Node1&#45;&gt;Node2</title>
<g id="a_edge1_Node000001_Node000002"><a xlink:title=" ">
<path fill="none" stroke="#63b8ff" d="M330.25,-138.17C275.13,-128.18 197.22,-113.76 129.12,-100 126.36,-99.44 123.54,-98.86 120.69,-98.27"/>
<polygon fill="#63b8ff" stroke="#63b8ff" points="329.35,-141.56 339.82,-139.9 330.6,-134.67 329.35,-141.56"/>
</a>
</g>
</g>
<!-- Node4 -->
<g id="Node000004" class="node">
<title>Node4</title>
<g id="a_Node000004"><a xlink:href="driver__ads1118__shot_8h.html" target="_top" xlink:title="driver ads1118 shot header file">
<polygon fill="white" stroke="#666666" points="258.25,-100 138,-100 138,-68 258.25,-68 258.25,-100"/>
<text xml:space="preserve" text-anchor="start" x="146" y="-86.5" font-family="Helvetica,sans-Serif" font-size="10.00">example/driver_ads1118</text>
<text xml:space="preserve" text-anchor="middle" x="198.12" y="-74.5" font-family="Helvetica,sans-Serif" font-size="10.00">_shot.h</text>
</a>
</g>
</g>
<!-- Node1&#45;&gt;Node4 -->
<g id="edge3_Node000001_Node000004" class="edge">
<title>Node1&#45;&gt;Node4</title>
<g id="a_edge3_Node000001_Node000004"><a xlink:title=" ">
<path fill="none" stroke="#63b8ff" d="M343.65,-132.08C312.71,-122.07 275.2,-109.94 246.01,-100.49"/>
<polygon fill="#63b8ff" stroke="#63b8ff" points="342.26,-135.31 352.86,-135.06 344.42,-128.65 342.26,-135.31"/>
</a>
</g>
</g>
<!-- Node6 -->
<g id="Node000006" class="node">
<title>Node6</title>
<g id="a_Node000006"><a xlink:href="driver__ads1118__interface__template_8c.html" target="_top" xlink:title="driver ads1118 interface template source file">
<polygon fill="white" stroke="#666666" points="397.62,-100 276.62,-100 276.62,-68 397.62,-68 397.62,-100"/>
<text xml:space="preserve" text-anchor="start" x="284.62" y="-86.5" font-family="Helvetica,sans-Serif" font-size="10.00">interface/driver_ads1118</text>
<text xml:space="preserve" text-anchor="middle" x="337.12" y="-74.5" font-family="Helvetica,sans-Serif" font-size="10.00">_interface_template.c</text>
</a>
</g>
</g>
<!-- Node1&#45;&gt;Node6 -->
<g id="edge5_Node000001_Node000006" class="edge">
<title>Node1&#45;&gt;Node6</title>
<g id="a_edge5_Node000001_Node000006"><a xlink:title=" ">
<path fill="none" stroke="#63b8ff" d="M379.19,-127.71C370.2,-118.59 360.14,-108.37 352.12,-100.22"/>
<polygon fill="#63b8ff" stroke="#63b8ff" points="376.48,-129.95 385.99,-134.61 381.46,-125.03 376.48,-129.95"/>
</a>
</g>
</g>
<!-- Node7 -->
<g id="Node000007" class="node">
<title>Node7</title>
<g id="a_Node000007"><a xlink:href="driver__ads1118__mutichannel__test_8h.html" target="_top" xlink:title="driver ads1118 mutichannel test header file">
<polygon fill="white" stroke="#666666" points="519,-100 415.25,-100 415.25,-68 519,-68 519,-100"/>
<text xml:space="preserve" text-anchor="start" x="423.25" y="-86.5" font-family="Helvetica,sans-Serif" font-size="10.00">test/driver_ads1118</text>
<text xml:space="preserve" text-anchor="middle" x="467.12" y="-74.5" font-family="Helvetica,sans-Serif" font-size="10.00">_mutichannel_test.h</text>
</a>
</g>
</g>
<!-- Node1&#45;&gt;Node7 -->
<g id="edge6_Node000001_Node000007" class="edge">
<title>Node1&#45;&gt;Node7</title>
<g id="a_edge6_Node000001_Node000007"><a xlink:title=" ">
<path fill="none" stroke="#63b8ff" d="M425.06,-127.71C434.05,-118.59 444.11,-108.37 452.13,-100.22"/>
<polygon fill="#63b8ff" stroke="#63b8ff" points="422.79,-125.03 418.26,-134.61 427.77,-129.95 422.79,-125.03"/>
</a>
</g>
</g>
<!-- Node9 -->
<g id="Node000009" class="node">
<title>Node9</title>
<g id="a_Node000009"><a xlink:href="driver__ads1118__read__test_8h.html" target="_top" xlink:title="driver ads1118 read test header file">
<polygon fill="white" stroke="#666666" points="637.12,-100 537.12,-100 537.12,-68 637.12,-68 637.12,-100"/>
<text xml:space="preserve" text-anchor="start" x="545.12" y="-86.5" font-family="Helvetica,sans-Serif" font-size="10.00">test/driver_ads1118</text>
<text xml:space="preserve" text-anchor="middle" x="587.12" y="-74.5" font-family="Helvetica,sans-Serif" font-size="10.00">_read_test.h</text>
</a>
</g>
</g>
<!-- Node1&#45;&gt;Node9 -->
<g id="edge8_Node000001_Node000009" class="edge">
<title>Node1&#45;&gt;Node9</title>
<g id="a_edge8_Node000001_Node000009"><a xlink:title=" ">
<path fill="none" stroke="#63b8ff" d="M456.26,-131.69C484.1,-121.76 517.58,-109.81 543.7,-100.49"/>
<polygon fill="#63b8ff" stroke="#63b8ff" points="455.17,-128.36 446.92,-135.02 457.52,-134.95 455.17,-128.36"/>
</a>
</g>
</g>
<!-- Node11 -->
<g id="Node000011" class="node">
<title>Node11</title>
<g id="a_Node000011"><a xlink:href="driver__ads1118__register__test_8h.html" target="_top" xlink:title="driver ads1118 register test header file">
<polygon fill="white" stroke="#666666" points="755.12,-100 655.12,-100 655.12,-68 755.12,-68 755.12,-100"/>
<text xml:space="preserve" text-anchor="start" x="663.12" y="-86.5" font-family="Helvetica,sans-Serif" font-size="10.00">test/driver_ads1118</text>
<text xml:space="preserve" text-anchor="middle" x="705.12" y="-74.5" font-family="Helvetica,sans-Serif" font-size="10.00">_register_test.h</text>
</a>
</g>
</g>
<!-- Node1&#45;&gt;Node11 -->
<g id="edge10_Node000001_Node000011" class="edge">
<title>Node1&#45;&gt;Node11</title>
<g id="a_edge10_Node000001_Node000011"><a xlink:title=" ">
<path fill="none" stroke="#63b8ff" d="M474.01,-136.82C522.7,-127.01 588.43,-113.36 646.12,-100 648.91,-99.36 651.76,-98.68 654.63,-97.99"/>
<polygon fill="#63b8ff" stroke="#63b8ff" points="473.55,-133.34 464.43,-138.74 474.93,-140.2 473.55,-133.34"/>
</a>
</g>
</g>
<!-- Node3 -->
<g id="Node000003" class="node">
<title>Node3</title>
<g id="a_Node000003"><a xlink:href="driver__ads1118__basic_8c.html" target="_top" xlink:title="driver ads1118 basic source file">
<polygon fill="white" stroke="#666666" points="120.25,-32 0,-32 0,0 120.25,0 120.25,-32"/>
<text xml:space="preserve" text-anchor="start" x="8" y="-18.5" font-family="Helvetica,sans-Serif" font-size="10.00">example/driver_ads1118</text>
<text xml:space="preserve" text-anchor="middle" x="60.12" y="-6.5" font-family="Helvetica,sans-Serif" font-size="10.00">_basic.c</text>
</a>
</g>
</g>
<!-- Node2&#45;&gt;Node3 -->
<g id="edge2_Node000002_Node000003" class="edge">
<title>Node2&#45;&gt;Node3</title>
<g id="a_edge2_Node000002_Node000003"><a xlink:title=" ">
<path fill="none" stroke="#63b8ff" d="M60.12,-56.31C60.12,-48.12 60.12,-39.38 60.12,-32.22"/>
<polygon fill="#63b8ff" stroke="#63b8ff" points="56.63,-56.18 60.13,-66.18 63.63,-56.18 56.63,-56.18"/>
</a>
</g>
</g>
<!-- Node5 -->
<g id="Node000005" class="node">
<title>Node5</title>
<g id="a_Node000005"><a xlink:href="driver__ads1118__shot_8c.html" target="_top" xlink:title="driver ads1118 shot source file">
<polygon fill="white" stroke="#666666" points="258.25,-32 138,-32 138,0 258.25,0 258.25,-32"/>
<text xml:space="preserve" text-anchor="start" x="146" y="-18.5" font-family="Helvetica,sans-Serif" font-size="10.00">example/driver_ads1118</text>
<text xml:space="preserve" text-anchor="middle" x="198.12" y="-6.5" font-family="Helvetica,sans-Serif" font-size="10.00">_shot.c</text>
</a>
</g>
</g>
<!-- Node4&#45;&gt;Node5 -->
<g id="edge4_Node000004_Node000005" class="edge">
<title>Node4&#45;&gt;Node5</title>
<g id="a_edge4_Node000004_Node000005"><a xlink:title=" ">
<path fill="none" stroke="#63b8ff" d="M198.12,-56.31C198.12,-48.12 198.12,-39.38 198.12,-32.22"/>
<polygon fill="#63b8ff" stroke="#63b8ff" points="194.63,-56.18 198.13,-66.18 201.63,-56.18 194.63,-56.18"/>
</a>
</g>
</g>
<!-- Node8 -->
<g id="Node000008" class="node">
<title>Node8</title>
<g id="a_Node000008"><a xlink:href="driver__ads1118__mutichannel__test_8c.html" target="_top" xlink:title="driver ads1118 mutichannel test source file">
<polygon fill="white" stroke="#666666" points="519,-32 415.25,-32 415.25,0 519,0 519,-32"/>
<text xml:space="preserve" text-anchor="start" x="423.25" y="-18.5" font-family="Helvetica,sans-Serif" font-size="10.00">test/driver_ads1118</text>
<text xml:space="preserve" text-anchor="middle" x="467.12" y="-6.5" font-family="Helvetica,sans-Serif" font-size="10.00">_mutichannel_test.c</text>
</a>
</g>
</g>
<!-- Node7&#45;&gt;Node8 -->
<g id="edge7_Node000007_Node000008" class="edge">
<title>Node7&#45;&gt;Node8</title>
<g id="a_edge7_Node000007_Node000008"><a xlink:title=" ">
<path fill="none" stroke="#63b8ff" d="M467.12,-56.31C467.12,-48.12 467.12,-39.38 467.12,-32.22"/>
<polygon fill="#63b8ff" stroke="#63b8ff" points="463.63,-56.18 467.13,-66.18 470.63,-56.18 463.63,-56.18"/>
</a>
</g>
</g>
<!-- Node10 -->
<g id="Node000010" class="node">
<title>Node10</title>
<g id="a_Node000010"><a xlink:href="driver__ads1118__read__test_8c.html" target="_top" xlink:title="driver ads1118 read test source file">
<polygon fill="white" stroke="#666666" points="637.12,-32 537.12,-32 537.12,0 637.12,0 637.12,-32"/>
<text xml:space="preserve" text-anchor="start" x="545.12" y="-18.5" font-family="Helvetica,sans-Serif" font-size="10.00">test/driver_ads1118</text>
<text xml:space="preserve" text-anchor="middle" x="587.12" y="-6.5" font-family="Helvetica,sans-Serif" font-size="10.00">_read_test.c</text>
</a>
</g>
</g>
<!-- Node9&#45;&gt;Node10 -->
<g id="edge9_Node000009_Node000010" class="edge">
<title>Node9&#45;&gt;Node10</title>
<g id="a_edge9_Node000009_Node000010"><a xlink:title=" ">
<path fill="none" stroke="#63b8ff" d="M587.12,-56.31C587.12,-48.12 587.12,-39.38 587.12,-32.22"/>
<polygon fill="#63b8ff" stroke="#63b8ff" points="583.63,-56.18 587.13,-66.18 590.63,-56.18 583.63,-56.18"/>
</a>
</g>
</g>
<!-- Node12 -->
<g id="Node000012" class="node">
<title>Node12</title>
<g id="a_Node000012"><a xlink:href="driver__ads1118__register__test_8c.html" target="_top" xlink:title="driver ads1118 register test source file">
<polygon fill="white" stroke="#666666" points="755.12,-32 655.12,-32 655.12,0 755.12,0 755.12,-32"/>
<text xml:space="preserve" text-anchor="start" x="663.12" y="-18.5" font-family="Helvetica,sans-Serif" font-size="10.00">test/driver_ads1118</text>
<text xml:space="preserve" text-anchor="middle" x="705.12" y="-6.5" font-family="Helvetica,sans-Serif" font-size="10.00">_register_test.c</text>
</a>
</g>
</g>
<!-- Node11&#45;&gt;Node12 -->
<g id="edge11_Node000011_Node000012" class="edge">
<title>Node11&#45;&gt;Node12</title>
<g id="a_edge11_Node000011_Node000012"><a xlink:title=" ">
<path fill="none" stroke="#63b8ff" d="M705.12,-56.31C705.12,-48.12 705.12,-39.38 705.12,-32.22"/>
<polygon fill="#63b8ff" stroke="#63b8ff" points="701.63,-56.18 705.13,-66.18 708.63,-56.18 701.63,-56.18"/>
</a>
</g>
</g>
</g>
</svg>
