<?xml version="1.0" encoding="UTF-8" standalone="no"?>
<!DOCTYPE svg PUBLIC "-//W3C//DTD SVG 1.1//EN"
 "http://www.w3.org/Graphics/SVG/1.1/DTD/svg11.dtd">
<!-- Generated by graphviz version 13.1.0 (20250701.0955)
 -->
<!-- Title: ads1118 driver function Pages: 1 -->
<svg width="279pt" height="290pt"
 viewBox="0.00 0.00 279.00 290.00" xmlns="http://www.w3.org/2000/svg" xmlns:xlink="http://www.w3.org/1999/xlink">
<g id="graph0" class="graph" transform="scale(1 1) rotate(0) translate(4 286)">
<title>ads1118 driver function</title>
<!-- Node3 -->
<g id="Node000003" class="node">
<title>Node3</title>
<g id="a_Node000003"><a xlink:href="group__ads1118__basic__driver.html" target="_top" xlink:title="ads1118 basic driver modules">
<polygon fill="white" stroke="#666666" points="263.38,-282 158.88,-282 158.88,-250 263.38,-250 263.38,-282"/>
<text xml:space="preserve" text-anchor="start" x="166.88" y="-268.5" font-family="Helvetica,sans-Serif" font-size="10.00">ads1118 basic driver</text>
<text xml:space="preserve" text-anchor="middle" x="211.12" y="-256.5" font-family="Helvetica,sans-Serif" font-size="10.00"> function</text>
</a>
</g>
</g>
<!-- Node1 -->
<g id="Node000001" class="node">
<title>Node1</title>
<g id="a_Node000001"><a xlink:title="ads1118 driver modules">
<polygon fill="#999999" stroke="#666666" points="115.75,-151 0,-151 0,-131 115.75,-131 115.75,-151"/>
<text xml:space="preserve" text-anchor="middle" x="57.88" y="-137.5" font-family="Helvetica,sans-Serif" font-size="10.00">ads1118 driver function</text>
</a>
</g>
</g>
<!-- Node1&#45;&gt;Node3 -->
<g id="edge2" class="edge">
<title>Node1&#45;&gt;Node3</title>
<path fill="none" stroke="black" d="M72.9,-160.45C89.6,-182.45 119.33,-218.17 151.75,-241 156.26,-244.17 161.23,-247.06 166.32,-249.65"/>
<polygon fill="black" stroke="black" points="75.86,-158.56 67.09,-152.62 70.24,-162.73 75.86,-158.56"/>
</g>
<!-- Node6 -->
<g id="Node000006" class="node">
<title>Node6</title>
<g id="a_Node000006"><a xlink:href="group__ads1118__example__driver.html" target="_top" xlink:title="ads1118 example driver modules">
<polygon fill="white" stroke="#666666" points="270.12,-232 152.12,-232 152.12,-200 270.12,-200 270.12,-232"/>
<text xml:space="preserve" text-anchor="start" x="160.12" y="-218.5" font-family="Helvetica,sans-Serif" font-size="10.00">ads1118 example driver</text>
<text xml:space="preserve" text-anchor="middle" x="211.12" y="-206.5" font-family="Helvetica,sans-Serif" font-size="10.00"> function</text>
</a>
</g>
</g>
<!-- Node1&#45;&gt;Node6 -->
<g id="edge5" class="edge">
<title>Node1&#45;&gt;Node6</title>
<path fill="none" stroke="black" d="M87.09,-157.04C105.33,-167.19 129.69,-180.36 151.75,-191 157.71,-193.87 164.08,-196.77 170.35,-199.53"/>
<polygon fill="black" stroke="black" points="88.88,-154.03 78.45,-152.19 85.46,-160.14 88.88,-154.03"/>
</g>
<!-- Node4 -->
<g id="Node000004" class="node">
<title>Node4</title>
<g id="a_Node000004"><a xlink:href="group__ads1118__extern__driver.html" target="_top" xlink:title="ads1118 extern driver modules">
<polygon fill="white" stroke="#666666" points="265.25,-182 157,-182 157,-150 265.25,-150 265.25,-182"/>
<text xml:space="preserve" text-anchor="start" x="165" y="-168.5" font-family="Helvetica,sans-Serif" font-size="10.00">ads1118 extern driver</text>
<text xml:space="preserve" text-anchor="middle" x="211.12" y="-156.5" font-family="Helvetica,sans-Serif" font-size="10.00"> function</text>
</a>
</g>
</g>
<!-- Node1&#45;&gt;Node4 -->
<g id="edge3" class="edge">
<title>Node1&#45;&gt;Node4</title>
<path fill="none" stroke="black" d="M127.18,-152.29C137.13,-153.94 147.26,-155.61 156.85,-157.19"/>
<polygon fill="black" stroke="black" points="127.99,-148.88 117.55,-150.7 126.84,-155.78 127.99,-148.88"/>
</g>
<!-- Node5 -->
<g id="Node000005" class="node">
<title>Node5</title>
<g id="a_Node000005"><a xlink:href="group__ads1118__interface__driver.html" target="_top" xlink:title="ads1118 interface driver modules">
<polygon fill="white" stroke="#666666" points="270.5,-132 151.75,-132 151.75,-100 270.5,-100 270.5,-132"/>
<text xml:space="preserve" text-anchor="start" x="159.75" y="-118.5" font-family="Helvetica,sans-Serif" font-size="10.00">ads1118 interface driver</text>
<text xml:space="preserve" text-anchor="middle" x="211.12" y="-106.5" font-family="Helvetica,sans-Serif" font-size="10.00"> function</text>
</a>
</g>
</g>
<!-- Node1&#45;&gt;Node5 -->
<g id="edge4" class="edge">
<title>Node1&#45;&gt;Node5</title>
<path fill="none" stroke="black" d="M127.3,-129.69C135.33,-128.36 143.47,-127.02 151.35,-125.71"/>
<polygon fill="black" stroke="black" points="126.84,-126.22 117.55,-131.3 127.99,-133.12 126.84,-126.22"/>
</g>
<!-- Node2 -->
<g id="Node000002" class="node">
<title>Node2</title>
<g id="a_Node000002"><a xlink:href="group__ads1118__link__driver.html" target="_top" xlink:title="ads1118 link driver modules">
<polygon fill="white" stroke="#666666" points="259.25,-82 163,-82 163,-50 259.25,-50 259.25,-82"/>
<text xml:space="preserve" text-anchor="start" x="171" y="-68.5" font-family="Helvetica,sans-Serif" font-size="10.00">ads1118 link driver</text>
<text xml:space="preserve" text-anchor="middle" x="211.12" y="-56.5" font-family="Helvetica,sans-Serif" font-size="10.00"> function</text>
</a>
</g>
</g>
<!-- Node1&#45;&gt;Node2 -->
<g id="edge1" class="edge">
<title>Node1&#45;&gt;Node2</title>
<path fill="none" stroke="black" d="M87.09,-124.96C105.33,-114.81 129.69,-101.64 151.75,-91 157.71,-88.13 164.08,-85.23 170.35,-82.47"/>
<polygon fill="black" stroke="black" points="85.46,-121.86 78.45,-129.81 88.88,-127.97 85.46,-121.86"/>
</g>
<!-- Node7 -->
<g id="Node000007" class="node">
<title>Node7</title>
<g id="a_Node000007"><a xlink:href="group__ads1118__test__driver.html" target="_top" xlink:title="ads1118 test driver modules">
<polygon fill="white" stroke="#666666" points="260,-32 162.25,-32 162.25,0 260,0 260,-32"/>
<text xml:space="preserve" text-anchor="start" x="170.25" y="-18.5" font-family="Helvetica,sans-Serif" font-size="10.00">ads1118 test driver</text>
<text xml:space="preserve" text-anchor="middle" x="211.12" y="-6.5" font-family="Helvetica,sans-Serif" font-size="10.00"> function</text>
</a>
</g>
</g>
<!-- Node1&#45;&gt;Node7 -->
<g id="edge6" class="edge">
<title>Node1&#45;&gt;Node7</title>
<path fill="none" stroke="black" d="M72.9,-121.55C89.6,-99.55 119.33,-63.83 151.75,-41 156.26,-37.83 161.23,-34.94 166.32,-32.35"/>
<polygon fill="black" stroke="black" points="70.24,-119.27 67.09,-129.38 75.86,-123.44 70.24,-119.27"/>
</g>
</g>
</svg>
