<?xml version="1.0" encoding="UTF-8" standalone="no"?>
<!DOCTYPE svg PUBLIC "-//W3C//DTD SVG 1.1//EN"
 "http://www.w3.org/Graphics/SVG/1.1/DTD/svg11.dtd">
<!-- Generated by graphviz version 13.1.0 (20250701.0955)
 -->
<!-- Title: ads1118_basic_init Pages: 1 -->
<svg width="294pt" height="520pt"
 viewBox="0.00 0.00 294.00 520.00" xmlns="http://www.w3.org/2000/svg" xmlns:xlink="http://www.w3.org/1999/xlink">
<g id="graph0" class="graph" transform="scale(1 1) rotate(0) translate(4 516)">
<title>ads1118_basic_init</title>
<!-- Node1 -->
<g id="Node000001" class="node">
<title>Node1</title>
<g id="a_Node000001"><a xlink:title="basic example init">
<polygon fill="#999999" stroke="#666666" points="97.75,-254 0,-254 0,-234 97.75,-234 97.75,-254"/>
<text xml:space="preserve" text-anchor="middle" x="48.88" y="-240.5" font-family="Helvetica,sans-Serif" font-size="10.00">ads1118_basic_init</text>
</a>
</g>
</g>
<!-- Node2 -->
<g id="Node000002" class="node">
<title>Node2</title>
<g id="a_Node000002"><a xlink:href="group__ads1118__basic__driver.html#ga9b8aa851ba99b283ac4602782b223ee3" target="_top" xlink:title="close the chip">
<polygon fill="white" stroke="#666666" points="249.88,-512 170.12,-512 170.12,-492 249.88,-492 249.88,-512"/>
<text xml:space="preserve" text-anchor="middle" x="210" y="-498.5" font-family="Helvetica,sans-Serif" font-size="10.00">ads1118_deinit</text>
</a>
</g>
</g>
<!-- Node1&#45;&gt;Node2 -->
<g id="edge1_Node000001_Node000002" class="edge">
<title>Node1&#45;&gt;Node2</title>
<g id="a_edge1_Node000001_Node000002"><a xlink:title=" ">
<path fill="none" stroke="#63b8ff" d="M50.22,-254.47C52.02,-291.66 63.3,-418.64 133.75,-483 140.83,-489.47 149.79,-493.81 159.03,-496.7"/>
<polygon fill="#63b8ff" stroke="#63b8ff" points="157.9,-500.03 168.45,-499.11 159.63,-493.24 157.9,-500.03"/>
</a>
</g>
</g>
<!-- Node3 -->
<g id="Node000003" class="node">
<title>Node3</title>
<g id="a_Node000003"><a xlink:href="group__ads1118__basic__driver.html#ga9014301f3bc54491fa06584985344a1d" target="_top" xlink:title="initialize the chip">
<polygon fill="white" stroke="#666666" points="244.62,-474 175.38,-474 175.38,-454 244.62,-454 244.62,-474"/>
<text xml:space="preserve" text-anchor="middle" x="210" y="-460.5" font-family="Helvetica,sans-Serif" font-size="10.00">ads1118_init</text>
</a>
</g>
</g>
<!-- Node1&#45;&gt;Node3 -->
<g id="edge2_Node000001_Node000003" class="edge">
<title>Node1&#45;&gt;Node3</title>
<g id="a_edge2_Node000001_Node000003"><a xlink:title=" ">
<path fill="none" stroke="#63b8ff" d="M50.96,-254.19C55.03,-287.21 72.46,-392.17 133.75,-445 142.23,-452.31 153.14,-456.88 164.01,-459.71"/>
<polygon fill="#63b8ff" stroke="#63b8ff" points="163.22,-463.12 173.73,-461.77 164.67,-456.28 163.22,-463.12"/>
</a>
</g>
</g>
<!-- Node4 -->
<g id="Node000004" class="node">
<title>Node4</title>
<g id="a_Node000004"><a xlink:href="group__ads1118__interface__driver.html#gaf9723249801bb15eec2c7d1e826d1b99" target="_top" xlink:title="interface print format data">
<polygon fill="white" stroke="#666666" points="272.75,-436 147.25,-436 147.25,-404 272.75,-404 272.75,-436"/>
<text xml:space="preserve" text-anchor="start" x="155.25" y="-422.5" font-family="Helvetica,sans-Serif" font-size="10.00">ads1118_interface_debug</text>
<text xml:space="preserve" text-anchor="middle" x="210" y="-410.5" font-family="Helvetica,sans-Serif" font-size="10.00">_print</text>
</a>
</g>
</g>
<!-- Node1&#45;&gt;Node4 -->
<g id="edge3_Node000001_Node000004" class="edge">
<title>Node1&#45;&gt;Node4</title>
<g id="a_edge3_Node000001_Node000004"><a xlink:title=" ">
<path fill="none" stroke="#63b8ff" d="M52.67,-254.12C60.62,-281.11 85.96,-355.38 133.75,-395 134.88,-395.94 136.05,-396.84 137.25,-397.71"/>
<polygon fill="#63b8ff" stroke="#63b8ff" points="135.36,-400.66 145.71,-402.96 139.05,-394.71 135.36,-400.66"/>
</a>
</g>
</g>
<!-- Node5 -->
<g id="Node000005" class="node">
<title>Node5</title>
<g id="a_Node000005"><a xlink:href="group__ads1118__interface__driver.html#ga54b3ba03def5a13b5164cbea5e220b5b" target="_top" xlink:title="interface delay ms">
<polygon fill="white" stroke="#666666" points="280.62,-386 139.38,-386 139.38,-366 280.62,-366 280.62,-386"/>
<text xml:space="preserve" text-anchor="middle" x="210" y="-372.5" font-family="Helvetica,sans-Serif" font-size="10.00">ads1118_interface_delay_ms</text>
</a>
</g>
</g>
<!-- Node1&#45;&gt;Node5 -->
<g id="edge4_Node000001_Node000005" class="edge">
<title>Node1&#45;&gt;Node5</title>
<g id="a_edge4_Node000001_Node000005"><a xlink:title=" ">
<path fill="none" stroke="#63b8ff" d="M54.49,-254.29C65.07,-276.68 93.34,-329.96 133.75,-357 135.84,-358.4 138.03,-359.7 140.29,-360.9"/>
<polygon fill="#63b8ff" stroke="#63b8ff" points="138.64,-363.99 149.19,-364.95 141.54,-357.62 138.64,-363.99"/>
</a>
</g>
</g>
<!-- Node6 -->
<g id="Node000006" class="node">
<title>Node6</title>
<g id="a_Node000006"><a xlink:href="group__ads1118__interface__driver.html#ga82e2ba1900949fc570e6f3a7e9b18a57" target="_top" xlink:title="interface spi bus deinit">
<polygon fill="white" stroke="#666666" points="266,-348 154,-348 154,-316 266,-316 266,-348"/>
<text xml:space="preserve" text-anchor="start" x="162" y="-334.5" font-family="Helvetica,sans-Serif" font-size="10.00">ads1118_interface_spi</text>
<text xml:space="preserve" text-anchor="middle" x="210" y="-322.5" font-family="Helvetica,sans-Serif" font-size="10.00">_deinit</text>
</a>
</g>
</g>
<!-- Node1&#45;&gt;Node6 -->
<g id="edge5_Node000001_Node000006" class="edge">
<title>Node1&#45;&gt;Node6</title>
<g id="a_edge5_Node000001_Node000006"><a xlink:title=" ">
<path fill="none" stroke="#63b8ff" d="M61.27,-254.49C76.69,-268.2 105.52,-292.21 133.75,-307 136.82,-308.61 140.02,-310.14 143.28,-311.6"/>
<polygon fill="#63b8ff" stroke="#63b8ff" points="141.91,-314.82 152.49,-315.42 144.59,-308.36 141.91,-314.82"/>
</a>
</g>
</g>
<!-- Node7 -->
<g id="Node000007" class="node">
<title>Node7</title>
<g id="a_Node000007"><a xlink:href="group__ads1118__interface__driver.html#gaa7cc0ff4ed6404c8ee15ce2edfa522eb" target="_top" xlink:title="interface spi bus init">
<polygon fill="white" stroke="#666666" points="275,-298 145,-298 145,-278 275,-278 275,-298"/>
<text xml:space="preserve" text-anchor="middle" x="210" y="-284.5" font-family="Helvetica,sans-Serif" font-size="10.00">ads1118_interface_spi_init</text>
</a>
</g>
</g>
<!-- Node1&#45;&gt;Node7 -->
<g id="edge6_Node000001_Node000007" class="edge">
<title>Node1&#45;&gt;Node7</title>
<g id="a_edge6_Node000001_Node000007"><a xlink:title=" ">
<path fill="none" stroke="#63b8ff" d="M83.65,-254.42C98.91,-259.04 117.2,-264.45 133.75,-269 140.74,-270.92 148.11,-272.88 155.4,-274.76"/>
<polygon fill="#63b8ff" stroke="#63b8ff" points="154.31,-278.1 164.87,-277.19 156.05,-271.32 154.31,-278.1"/>
</a>
</g>
</g>
<!-- Node8 -->
<g id="Node000008" class="node">
<title>Node8</title>
<g id="a_Node000008"><a xlink:href="group__ads1118__interface__driver.html#ga6a476d592db36d55537e0fcf085cf1a5" target="_top" xlink:title="interface spi bus transmit">
<polygon fill="white" stroke="#666666" points="266,-260 154,-260 154,-228 266,-228 266,-260"/>
<text xml:space="preserve" text-anchor="start" x="162" y="-246.5" font-family="Helvetica,sans-Serif" font-size="10.00">ads1118_interface_spi</text>
<text xml:space="preserve" text-anchor="middle" x="210" y="-234.5" font-family="Helvetica,sans-Serif" font-size="10.00">_transmit</text>
</a>
</g>
</g>
<!-- Node1&#45;&gt;Node8 -->
<g id="edge7_Node000001_Node000008" class="edge">
<title>Node1&#45;&gt;Node8</title>
<g id="a_edge7_Node000001_Node000008"><a xlink:title=" ">
<path fill="none" stroke="#63b8ff" d="M98.05,-244C112.05,-244 127.58,-244 142.49,-244"/>
<polygon fill="#63b8ff" stroke="#63b8ff" points="142.22,-247.5 152.22,-244 142.22,-240.5 142.22,-247.5"/>
</a>
</g>
</g>
<!-- Node9 -->
<g id="Node000009" class="node">
<title>Node9</title>
<g id="a_Node000009"><a xlink:href="group__ads1118__basic__driver.html#ga4f38861957ee1ce243bc3f185dab9fd2" target="_top" xlink:title="set the adc channel">
<polygon fill="white" stroke="#666666" points="264.5,-210 155.5,-210 155.5,-190 264.5,-190 264.5,-210"/>
<text xml:space="preserve" text-anchor="middle" x="210" y="-196.5" font-family="Helvetica,sans-Serif" font-size="10.00">ads1118_set_channel</text>
</a>
</g>
</g>
<!-- Node1&#45;&gt;Node9 -->
<g id="edge8_Node000001_Node000009" class="edge">
<title>Node1&#45;&gt;Node9</title>
<g id="a_edge8_Node000001_Node000009"><a xlink:title=" ">
<path fill="none" stroke="#63b8ff" d="M83.65,-233.58C98.91,-228.96 117.2,-223.55 133.75,-219 140.74,-217.08 148.11,-215.12 155.4,-213.24"/>
<polygon fill="#63b8ff" stroke="#63b8ff" points="156.05,-216.68 164.87,-210.81 154.31,-209.9 156.05,-216.68"/>
</a>
</g>
</g>
<!-- Node10 -->
<g id="Node000010" class="node">
<title>Node10</title>
<g id="a_Node000010"><a xlink:href="group__ads1118__basic__driver.html#ga911c4bebd479377d56dcd638f727cc63" target="_top" xlink:title="enable or disable dout pull up">
<polygon fill="white" stroke="#666666" points="275,-172 145,-172 145,-152 275,-152 275,-172"/>
<text xml:space="preserve" text-anchor="middle" x="210" y="-158.5" font-family="Helvetica,sans-Serif" font-size="10.00">ads1118_set_dout_pull_up</text>
</a>
</g>
</g>
<!-- Node1&#45;&gt;Node10 -->
<g id="edge9_Node000001_Node000010" class="edge">
<title>Node1&#45;&gt;Node10</title>
<g id="a_edge9_Node000001_Node000010"><a xlink:title=" ">
<path fill="none" stroke="#63b8ff" d="M60.6,-233.67C75.7,-219.69 104.67,-194.9 133.75,-181 137.5,-179.21 141.43,-177.58 145.45,-176.09"/>
<polygon fill="#63b8ff" stroke="#63b8ff" points="146.44,-179.45 154.81,-172.95 144.21,-172.81 146.44,-179.45"/>
</a>
</g>
</g>
<!-- Node11 -->
<g id="Node000011" class="node">
<title>Node11</title>
<g id="a_Node000011"><a xlink:href="group__ads1118__basic__driver.html#gadcf796dd6f95d9cafe5b053b0a0a0988" target="_top" xlink:title="set the chip mode">
<polygon fill="white" stroke="#666666" points="259.62,-134 160.38,-134 160.38,-114 259.62,-114 259.62,-134"/>
<text xml:space="preserve" text-anchor="middle" x="210" y="-120.5" font-family="Helvetica,sans-Serif" font-size="10.00">ads1118_set_mode</text>
</a>
</g>
</g>
<!-- Node1&#45;&gt;Node11 -->
<g id="edge10_Node000001_Node000011" class="edge">
<title>Node1&#45;&gt;Node11</title>
<g id="a_edge10_Node000001_Node000011"><a xlink:title=" ">
<path fill="none" stroke="#63b8ff" d="M55.49,-233.57C67.17,-212.9 96.15,-166.7 133.75,-143 138.61,-139.93 143.94,-137.36 149.45,-135.21"/>
<polygon fill="#63b8ff" stroke="#63b8ff" points="150.42,-138.57 158.75,-132.04 148.16,-131.95 150.42,-138.57"/>
</a>
</g>
</g>
<!-- Node12 -->
<g id="Node000012" class="node">
<title>Node12</title>
<g id="a_Node000012"><a xlink:href="group__ads1118__basic__driver.html#ga5144bbba8907fedd3957b609e2edd9d2" target="_top" xlink:title="set the adc range">
<polygon fill="white" stroke="#666666" points="259.62,-96 160.38,-96 160.38,-76 259.62,-76 259.62,-96"/>
<text xml:space="preserve" text-anchor="middle" x="210" y="-82.5" font-family="Helvetica,sans-Serif" font-size="10.00">ads1118_set_range</text>
</a>
</g>
</g>
<!-- Node1&#45;&gt;Node12 -->
<g id="edge11_Node000001_Node000012" class="edge">
<title>Node1&#45;&gt;Node12</title>
<g id="a_edge11_Node000001_Node000012"><a xlink:title=" ">
<path fill="none" stroke="#63b8ff" d="M53.01,-233.74C61.47,-207.84 87.32,-139.39 133.75,-105 138.43,-101.53 143.68,-98.69 149.18,-96.37"/>
<polygon fill="#63b8ff" stroke="#63b8ff" points="150.29,-99.68 158.52,-93.02 147.93,-93.1 150.29,-99.68"/>
</a>
</g>
</g>
<!-- Node13 -->
<g id="Node000013" class="node">
<title>Node13</title>
<g id="a_Node000013"><a xlink:href="group__ads1118__basic__driver.html#gab57aaa419bd104ec5d343d4298df9d19" target="_top" xlink:title="set the sample rate">
<polygon fill="white" stroke="#666666" points="255.88,-58 164.12,-58 164.12,-38 255.88,-38 255.88,-58"/>
<text xml:space="preserve" text-anchor="middle" x="210" y="-44.5" font-family="Helvetica,sans-Serif" font-size="10.00">ads1118_set_rate</text>
</a>
</g>
</g>
<!-- Node1&#45;&gt;Node13 -->
<g id="edge12_Node000001_Node000013" class="edge">
<title>Node1&#45;&gt;Node13</title>
<g id="a_edge12_Node000001_Node000013"><a xlink:title=" ">
<path fill="none" stroke="#63b8ff" d="M51.6,-233.74C57.28,-203.26 78.31,-112.55 133.75,-67 139.49,-62.29 146.24,-58.72 153.3,-56.03"/>
<polygon fill="#63b8ff" stroke="#63b8ff" points="153.89,-59.52 162.36,-53.14 151.76,-52.85 153.89,-59.52"/>
</a>
</g>
</g>
<!-- Node14 -->
<g id="Node000014" class="node">
<title>Node14</title>
<g id="a_Node000014"><a xlink:href="group__ads1118__basic__driver.html#gad91adcee86fd324ce059c910fbbfc703" target="_top" xlink:title="start the chip reading">
<polygon fill="white" stroke="#666666" points="286.25,-20 133.75,-20 133.75,0 286.25,0 286.25,-20"/>
<text xml:space="preserve" text-anchor="middle" x="210" y="-6.5" font-family="Helvetica,sans-Serif" font-size="10.00">ads1118_start_continuous_read</text>
</a>
</g>
</g>
<!-- Node1&#45;&gt;Node14 -->
<g id="edge13_Node000001_Node000014" class="edge">
<title>Node1&#45;&gt;Node14</title>
<g id="a_edge13_Node000001_Node000014"><a xlink:title=" ">
<path fill="none" stroke="#63b8ff" d="M50.67,-233.61C53.9,-198.91 69.16,-86 133.75,-29 134.83,-28.05 135.95,-27.14 137.11,-26.28"/>
<polygon fill="#63b8ff" stroke="#63b8ff" points="138.58,-29.48 145.29,-21.29 134.93,-23.51 138.58,-29.48"/>
</a>
</g>
</g>
</g>
</svg>
