<?xml version="1.0" encoding="UTF-8" standalone="no"?>
<!DOCTYPE svg PUBLIC "-//W3C//DTD SVG 1.1//EN"
 "http://www.w3.org/Graphics/SVG/1.1/DTD/svg11.dtd">
<!-- Generated by graphviz version 13.1.0 (20250701.0955)
 -->
<!-- Title: ads1118_basic_read_temperature Pages: 1 -->
<svg width="276pt" height="78pt"
 viewBox="0.00 0.00 276.00 78.00" xmlns="http://www.w3.org/2000/svg" xmlns:xlink="http://www.w3.org/1999/xlink">
<g id="graph0" class="graph" transform="scale(1 1) rotate(0) translate(4 74)">
<title>ads1118_basic_read_temperature</title>
<!-- Node1 -->
<g id="Node000001" class="node">
<title>Node1</title>
<g id="a_Node000001"><a xlink:title="basic example read">
<polygon fill="#999999" stroke="#666666" points="103.75,-54 0,-54 0,-22 103.75,-22 103.75,-54"/>
<text xml:space="preserve" text-anchor="start" x="8" y="-40.5" font-family="Helvetica,sans-Serif" font-size="10.00">ads1118_basic_read</text>
<text xml:space="preserve" text-anchor="middle" x="51.88" y="-28.5" font-family="Helvetica,sans-Serif" font-size="10.00">_temperature</text>
</a>
</g>
</g>
<!-- Node2 -->
<g id="Node000002" class="node">
<title>Node2</title>
<g id="a_Node000002"><a xlink:href="group__ads1118__basic__driver.html#ga73e33b761a30ee2d8a32e2683f501b21" target="_top" xlink:title="read data from the chip continuously">
<polygon fill="white" stroke="#666666" points="267.5,-70 139.75,-70 139.75,-50 267.5,-50 267.5,-70"/>
<text xml:space="preserve" text-anchor="middle" x="203.62" y="-56.5" font-family="Helvetica,sans-Serif" font-size="10.00">ads1118_continuous_read</text>
</a>
</g>
</g>
<!-- Node1&#45;&gt;Node2 -->
<g id="edge1_Node000001_Node000002" class="edge">
<title>Node1&#45;&gt;Node2</title>
<g id="a_edge1_Node000001_Node000002"><a xlink:title=" ">
<path fill="none" stroke="#63b8ff" d="M103.99,-45.51C111.8,-46.66 119.99,-47.86 128.17,-49.06"/>
<polygon fill="#63b8ff" stroke="#63b8ff" points="127.39,-52.48 137.79,-50.48 128.41,-45.56 127.39,-52.48"/>
</a>
</g>
</g>
<!-- Node3 -->
<g id="Node000003" class="node">
<title>Node3</title>
<g id="a_Node000003"><a xlink:href="group__ads1118__basic__driver.html#gabbc1c33e1c2509c10d965420a96a4aa6" target="_top" xlink:title="temperature convert">
<polygon fill="white" stroke="#666666" points="257.75,-32 149.5,-32 149.5,0 257.75,0 257.75,-32"/>
<text xml:space="preserve" text-anchor="start" x="157.5" y="-18.5" font-family="Helvetica,sans-Serif" font-size="10.00">ads1118_temperature</text>
<text xml:space="preserve" text-anchor="middle" x="203.62" y="-6.5" font-family="Helvetica,sans-Serif" font-size="10.00">_convert</text>
</a>
</g>
</g>
<!-- Node1&#45;&gt;Node3 -->
<g id="edge2_Node000001_Node000003" class="edge">
<title>Node1&#45;&gt;Node3</title>
<g id="a_edge2_Node000001_Node000003"><a xlink:title=" ">
<path fill="none" stroke="#63b8ff" d="M103.99,-30.49C114.92,-28.88 126.61,-27.17 137.97,-25.5"/>
<polygon fill="#63b8ff" stroke="#63b8ff" points="138.3,-28.99 147.69,-24.07 137.29,-22.06 138.3,-28.99"/>
</a>
</g>
</g>
</g>
</svg>
