<?xml version="1.0" encoding="UTF-8" standalone="no"?>
<!DOCTYPE svg PUBLIC "-//W3C//DTD SVG 1.1//EN"
 "http://www.w3.org/Graphics/SVG/1.1/DTD/svg11.dtd">
<!-- Generated by graphviz version 13.1.0 (20250701.0955)
 -->
<!-- Title: ads1118_shot_init Pages: 1 -->
<svg width="279pt" height="482pt"
 viewBox="0.00 0.00 279.00 482.00" xmlns="http://www.w3.org/2000/svg" xmlns:xlink="http://www.w3.org/1999/xlink">
<g id="graph0" class="graph" transform="scale(1 1) rotate(0) translate(4 478)">
<title>ads1118_shot_init</title>
<!-- Node1 -->
<g id="Node000001" class="node">
<title>Node1</title>
<g id="a_Node000001"><a xlink:title="shot example init">
<polygon fill="#999999" stroke="#666666" points="93.25,-238 0,-238 0,-218 93.25,-218 93.25,-238"/>
<text xml:space="preserve" text-anchor="middle" x="46.62" y="-224.5" font-family="Helvetica,sans-Serif" font-size="10.00">ads1118_shot_init</text>
</a>
</g>
</g>
<!-- Node2 -->
<g id="Node000002" class="node">
<title>Node2</title>
<g id="a_Node000002"><a xlink:href="group__ads1118__basic__driver.html#ga9b8aa851ba99b283ac4602782b223ee3" target="_top" xlink:title="close the chip">
<polygon fill="white" stroke="#666666" points="239.75,-474 160,-474 160,-454 239.75,-454 239.75,-474"/>
<text xml:space="preserve" text-anchor="middle" x="199.88" y="-460.5" font-family="Helvetica,sans-Serif" font-size="10.00">ads1118_deinit</text>
</a>
</g>
</g>
<!-- Node1&#45;&gt;Node2 -->
<g id="edge1_Node000001_Node000002" class="edge">
<title>Node1&#45;&gt;Node2</title>
<g id="a_edge1_Node000001_Node000002"><a xlink:title=" ">
<path fill="none" stroke="#63b8ff" d="M48.31,-238.43C51.18,-273.28 65.27,-386.73 129.25,-445 134.79,-450.04 141.53,-453.77 148.62,-456.51"/>
<polygon fill="#63b8ff" stroke="#63b8ff" points="147.5,-459.83 158.09,-459.51 149.62,-453.15 147.5,-459.83"/>
</a>
</g>
</g>
<!-- Node3 -->
<g id="Node000003" class="node">
<title>Node3</title>
<g id="a_Node000003"><a xlink:href="group__ads1118__basic__driver.html#ga9014301f3bc54491fa06584985344a1d" target="_top" xlink:title="initialize the chip">
<polygon fill="white" stroke="#666666" points="234.5,-436 165.25,-436 165.25,-416 234.5,-416 234.5,-436"/>
<text xml:space="preserve" text-anchor="middle" x="199.88" y="-422.5" font-family="Helvetica,sans-Serif" font-size="10.00">ads1118_init</text>
</a>
</g>
</g>
<!-- Node1&#45;&gt;Node3 -->
<g id="edge2_Node000001_Node000003" class="edge">
<title>Node1&#45;&gt;Node3</title>
<g id="a_edge2_Node000001_Node000003"><a xlink:title=" ">
<path fill="none" stroke="#63b8ff" d="M49.22,-238.32C54.5,-268.99 74.35,-360.32 129.25,-407 136.31,-413 145.1,-417.12 154.03,-419.95"/>
<polygon fill="#63b8ff" stroke="#63b8ff" points="152.86,-423.26 163.42,-422.4 154.63,-416.49 152.86,-423.26"/>
</a>
</g>
</g>
<!-- Node4 -->
<g id="Node000004" class="node">
<title>Node4</title>
<g id="a_Node000004"><a xlink:href="group__ads1118__interface__driver.html#gaf9723249801bb15eec2c7d1e826d1b99" target="_top" xlink:title="interface print format data">
<polygon fill="white" stroke="#666666" points="262.62,-398 137.12,-398 137.12,-366 262.62,-366 262.62,-398"/>
<text xml:space="preserve" text-anchor="start" x="145.12" y="-384.5" font-family="Helvetica,sans-Serif" font-size="10.00">ads1118_interface_debug</text>
<text xml:space="preserve" text-anchor="middle" x="199.88" y="-372.5" font-family="Helvetica,sans-Serif" font-size="10.00">_print</text>
</a>
</g>
</g>
<!-- Node1&#45;&gt;Node4 -->
<g id="edge3_Node000001_Node000004" class="edge">
<title>Node1&#45;&gt;Node4</title>
<g id="a_edge3_Node000001_Node000004"><a xlink:title=" ">
<path fill="none" stroke="#63b8ff" d="M51.41,-238.33C60.81,-262.56 87.48,-323.52 129.25,-357 130.38,-357.9 131.54,-358.78 132.73,-359.62"/>
<polygon fill="#63b8ff" stroke="#63b8ff" points="130.73,-362.49 141.09,-364.71 134.37,-356.52 130.73,-362.49"/>
</a>
</g>
</g>
<!-- Node5 -->
<g id="Node000005" class="node">
<title>Node5</title>
<g id="a_Node000005"><a xlink:href="group__ads1118__interface__driver.html#ga54b3ba03def5a13b5164cbea5e220b5b" target="_top" xlink:title="interface delay ms">
<polygon fill="white" stroke="#666666" points="270.5,-348 129.25,-348 129.25,-328 270.5,-328 270.5,-348"/>
<text xml:space="preserve" text-anchor="middle" x="199.88" y="-334.5" font-family="Helvetica,sans-Serif" font-size="10.00">ads1118_interface_delay_ms</text>
</a>
</g>
</g>
<!-- Node1&#45;&gt;Node5 -->
<g id="edge4_Node000001_Node000005" class="edge">
<title>Node1&#45;&gt;Node5</title>
<g id="a_edge4_Node000001_Node000005"><a xlink:title=" ">
<path fill="none" stroke="#63b8ff" d="M53.88,-238.21C66,-257.11 94.58,-297.6 129.25,-319 131.68,-320.5 134.22,-321.88 136.84,-323.15"/>
<polygon fill="#63b8ff" stroke="#63b8ff" points="135.29,-326.3 145.87,-326.96 138.02,-319.85 135.29,-326.3"/>
</a>
</g>
</g>
<!-- Node6 -->
<g id="Node000006" class="node">
<title>Node6</title>
<g id="a_Node000006"><a xlink:href="group__ads1118__interface__driver.html#ga82e2ba1900949fc570e6f3a7e9b18a57" target="_top" xlink:title="interface spi bus deinit">
<polygon fill="white" stroke="#666666" points="255.88,-310 143.88,-310 143.88,-278 255.88,-278 255.88,-310"/>
<text xml:space="preserve" text-anchor="start" x="151.88" y="-296.5" font-family="Helvetica,sans-Serif" font-size="10.00">ads1118_interface_spi</text>
<text xml:space="preserve" text-anchor="middle" x="199.88" y="-284.5" font-family="Helvetica,sans-Serif" font-size="10.00">_deinit</text>
</a>
</g>
</g>
<!-- Node1&#45;&gt;Node6 -->
<g id="edge5_Node000001_Node000006" class="edge">
<title>Node1&#45;&gt;Node6</title>
<g id="a_edge5_Node000001_Node000006"><a xlink:title=" ">
<path fill="none" stroke="#63b8ff" d="M66.77,-238.44C83.12,-247.16 107.39,-259.63 129.25,-269 132.78,-270.51 136.44,-272.02 140.14,-273.49"/>
<polygon fill="#63b8ff" stroke="#63b8ff" points="138.64,-276.66 149.23,-276.99 141.16,-270.13 138.64,-276.66"/>
</a>
</g>
</g>
<!-- Node7 -->
<g id="Node000007" class="node">
<title>Node7</title>
<g id="a_Node000007"><a xlink:href="group__ads1118__interface__driver.html#gaa7cc0ff4ed6404c8ee15ce2edfa522eb" target="_top" xlink:title="interface spi bus init">
<polygon fill="white" stroke="#666666" points="264.88,-260 134.88,-260 134.88,-240 264.88,-240 264.88,-260"/>
<text xml:space="preserve" text-anchor="middle" x="199.88" y="-246.5" font-family="Helvetica,sans-Serif" font-size="10.00">ads1118_interface_spi_init</text>
</a>
</g>
</g>
<!-- Node1&#45;&gt;Node7 -->
<g id="edge6_Node000001_Node000007" class="edge">
<title>Node1&#45;&gt;Node7</title>
<g id="a_edge6_Node000001_Node000007"><a xlink:title=" ">
<path fill="none" stroke="#63b8ff" d="M93.42,-234.66C102.93,-236.04 113.19,-237.54 123.45,-239.03"/>
<polygon fill="#63b8ff" stroke="#63b8ff" points="122.65,-242.45 133.05,-240.43 123.66,-235.52 122.65,-242.45"/>
</a>
</g>
</g>
<!-- Node8 -->
<g id="Node000008" class="node">
<title>Node8</title>
<g id="a_Node000008"><a xlink:href="group__ads1118__interface__driver.html#ga6a476d592db36d55537e0fcf085cf1a5" target="_top" xlink:title="interface spi bus transmit">
<polygon fill="white" stroke="#666666" points="255.88,-222 143.88,-222 143.88,-190 255.88,-190 255.88,-222"/>
<text xml:space="preserve" text-anchor="start" x="151.88" y="-208.5" font-family="Helvetica,sans-Serif" font-size="10.00">ads1118_interface_spi</text>
<text xml:space="preserve" text-anchor="middle" x="199.88" y="-196.5" font-family="Helvetica,sans-Serif" font-size="10.00">_transmit</text>
</a>
</g>
</g>
<!-- Node1&#45;&gt;Node8 -->
<g id="edge7_Node000001_Node000008" class="edge">
<title>Node1&#45;&gt;Node8</title>
<g id="a_edge7_Node000001_Node000008"><a xlink:title=" ">
<path fill="none" stroke="#63b8ff" d="M93.42,-221.34C105.65,-219.56 119.14,-217.6 132.25,-215.69"/>
<polygon fill="#63b8ff" stroke="#63b8ff" points="132.75,-219.16 142.14,-214.25 131.74,-212.23 132.75,-219.16"/>
</a>
</g>
</g>
<!-- Node9 -->
<g id="Node000009" class="node">
<title>Node9</title>
<g id="a_Node000009"><a xlink:href="group__ads1118__basic__driver.html#ga4f38861957ee1ce243bc3f185dab9fd2" target="_top" xlink:title="set the adc channel">
<polygon fill="white" stroke="#666666" points="254.38,-172 145.38,-172 145.38,-152 254.38,-152 254.38,-172"/>
<text xml:space="preserve" text-anchor="middle" x="199.88" y="-158.5" font-family="Helvetica,sans-Serif" font-size="10.00">ads1118_set_channel</text>
</a>
</g>
</g>
<!-- Node1&#45;&gt;Node9 -->
<g id="edge8_Node000001_Node000009" class="edge">
<title>Node1&#45;&gt;Node9</title>
<g id="a_edge8_Node000001_Node000009"><a xlink:title=" ">
<path fill="none" stroke="#63b8ff" d="M62.96,-217.57C78.93,-207.1 104.94,-191.12 129.25,-181 133.8,-179.11 138.59,-177.35 143.45,-175.73"/>
<polygon fill="#63b8ff" stroke="#63b8ff" points="144.16,-179.17 152.66,-172.84 142.07,-172.49 144.16,-179.17"/>
</a>
</g>
</g>
<!-- Node10 -->
<g id="Node000010" class="node">
<title>Node10</title>
<g id="a_Node000010"><a xlink:href="group__ads1118__basic__driver.html#ga911c4bebd479377d56dcd638f727cc63" target="_top" xlink:title="enable or disable dout pull up">
<polygon fill="white" stroke="#666666" points="264.88,-134 134.88,-134 134.88,-114 264.88,-114 264.88,-134"/>
<text xml:space="preserve" text-anchor="middle" x="199.88" y="-120.5" font-family="Helvetica,sans-Serif" font-size="10.00">ads1118_set_dout_pull_up</text>
</a>
</g>
</g>
<!-- Node1&#45;&gt;Node10 -->
<g id="edge9_Node000001_Node000010" class="edge">
<title>Node1&#45;&gt;Node10</title>
<g id="a_edge9_Node000001_Node000010"><a xlink:title=" ">
<path fill="none" stroke="#63b8ff" d="M54.64,-217.64C67.36,-199.67 96.01,-162.75 129.25,-143 131.84,-141.46 134.55,-140.05 137.35,-138.74"/>
<polygon fill="#63b8ff" stroke="#63b8ff" points="138.4,-142.09 146.34,-135.07 135.76,-135.61 138.4,-142.09"/>
</a>
</g>
</g>
<!-- Node11 -->
<g id="Node000011" class="node">
<title>Node11</title>
<g id="a_Node000011"><a xlink:href="group__ads1118__basic__driver.html#gadcf796dd6f95d9cafe5b053b0a0a0988" target="_top" xlink:title="set the chip mode">
<polygon fill="white" stroke="#666666" points="249.5,-96 150.25,-96 150.25,-76 249.5,-76 249.5,-96"/>
<text xml:space="preserve" text-anchor="middle" x="199.88" y="-82.5" font-family="Helvetica,sans-Serif" font-size="10.00">ads1118_set_mode</text>
</a>
</g>
</g>
<!-- Node1&#45;&gt;Node11 -->
<g id="edge10_Node000001_Node000011" class="edge">
<title>Node1&#45;&gt;Node11</title>
<g id="a_edge10_Node000001_Node000011"><a xlink:title=" ">
<path fill="none" stroke="#63b8ff" d="M51.53,-217.58C60.99,-193.79 87.49,-135.17 129.25,-105 132.44,-102.69 135.9,-100.66 139.52,-98.88"/>
<polygon fill="#63b8ff" stroke="#63b8ff" points="140.74,-102.16 148.61,-95.07 138.04,-95.71 140.74,-102.16"/>
</a>
</g>
</g>
<!-- Node12 -->
<g id="Node000012" class="node">
<title>Node12</title>
<g id="a_Node000012"><a xlink:href="group__ads1118__basic__driver.html#ga5144bbba8907fedd3957b609e2edd9d2" target="_top" xlink:title="set the adc range">
<polygon fill="white" stroke="#666666" points="249.5,-58 150.25,-58 150.25,-38 249.5,-38 249.5,-58"/>
<text xml:space="preserve" text-anchor="middle" x="199.88" y="-44.5" font-family="Helvetica,sans-Serif" font-size="10.00">ads1118_set_range</text>
</a>
</g>
</g>
<!-- Node1&#45;&gt;Node12 -->
<g id="edge11_Node000001_Node000012" class="edge">
<title>Node1&#45;&gt;Node12</title>
<g id="a_edge11_Node000001_Node000012"><a xlink:title=" ">
<path fill="none" stroke="#63b8ff" d="M49.74,-217.9C56.21,-189.51 78.49,-108.39 129.25,-67 132.35,-64.47 135.77,-62.27 139.37,-60.37"/>
<polygon fill="#63b8ff" stroke="#63b8ff" points="140.77,-63.58 148.51,-56.35 137.95,-57.17 140.77,-63.58"/>
</a>
</g>
</g>
<!-- Node13 -->
<g id="Node000013" class="node">
<title>Node13</title>
<g id="a_Node000013"><a xlink:href="group__ads1118__basic__driver.html#gab57aaa419bd104ec5d343d4298df9d19" target="_top" xlink:title="set the sample rate">
<polygon fill="white" stroke="#666666" points="245.75,-20 154,-20 154,0 245.75,0 245.75,-20"/>
<text xml:space="preserve" text-anchor="middle" x="199.88" y="-6.5" font-family="Helvetica,sans-Serif" font-size="10.00">ads1118_set_rate</text>
</a>
</g>
</g>
<!-- Node1&#45;&gt;Node13 -->
<g id="edge12_Node000001_Node000013" class="edge">
<title>Node1&#45;&gt;Node13</title>
<g id="a_edge12_Node000001_Node000013"><a xlink:title=" ">
<path fill="none" stroke="#63b8ff" d="M48.72,-217.5C52.72,-184.46 69.66,-81.68 129.25,-29 133.32,-25.4 138.01,-22.48 142.98,-20.1"/>
<polygon fill="#63b8ff" stroke="#63b8ff" points="144.08,-23.43 152.1,-16.51 141.52,-16.92 144.08,-23.43"/>
</a>
</g>
</g>
</g>
</svg>
