<?xml version="1.0" encoding="UTF-8" standalone="no"?>
<!DOCTYPE svg PUBLIC "-//W3C//DTD SVG 1.1//EN"
 "http://www.w3.org/Graphics/SVG/1.1/DTD/svg11.dtd">
<!-- Generated by graphviz version 13.1.0 (20250701.0955)
 -->
<!-- Title: ads1118_shot_read_temperature Pages: 1 -->
<svg width="309pt" height="78pt"
 viewBox="0.00 0.00 309.00 78.00" xmlns="http://www.w3.org/2000/svg" xmlns:xlink="http://www.w3.org/1999/xlink">
<g id="graph0" class="graph" transform="scale(1 1) rotate(0) translate(4 74)">
<title>ads1118_shot_read_temperature</title>
<!-- Node1 -->
<g id="Node000001" class="node">
<title>Node1</title>
<g id="a_Node000001"><a xlink:title="shot example read">
<polygon fill="#999999" stroke="#666666" points="156.25,-48 0,-48 0,-28 156.25,-28 156.25,-48"/>
<text xml:space="preserve" text-anchor="middle" x="78.12" y="-34.5" font-family="Helvetica,sans-Serif" font-size="10.00">ads1118_shot_read_temperature</text>
</a>
</g>
</g>
<!-- Node2 -->
<g id="Node000002" class="node">
<title>Node2</title>
<g id="a_Node000002"><a xlink:href="group__ads1118__basic__driver.html#ga2188b115128959d6296d1aa337293532" target="_top" xlink:title="read data from the chip once">
<polygon fill="white" stroke="#666666" points="299.38,-70 193.38,-70 193.38,-50 299.38,-50 299.38,-70"/>
<text xml:space="preserve" text-anchor="middle" x="246.38" y="-56.5" font-family="Helvetica,sans-Serif" font-size="10.00">ads1118_single_read</text>
</a>
</g>
</g>
<!-- Node1&#45;&gt;Node2 -->
<g id="edge1_Node000001_Node000002" class="edge">
<title>Node1&#45;&gt;Node2</title>
<g id="a_edge1_Node000001_Node000002"><a xlink:title=" ">
<path fill="none" stroke="#63b8ff" d="M156.41,-48.23C164.92,-49.35 173.51,-50.49 181.83,-51.59"/>
<polygon fill="#63b8ff" stroke="#63b8ff" points="181.09,-55.02 191.46,-52.87 182.01,-48.08 181.09,-55.02"/>
</a>
</g>
</g>
<!-- Node3 -->
<g id="Node000003" class="node">
<title>Node3</title>
<g id="a_Node000003"><a xlink:href="group__ads1118__basic__driver.html#gabbc1c33e1c2509c10d965420a96a4aa6" target="_top" xlink:title="temperature convert">
<polygon fill="white" stroke="#666666" points="300.5,-32 192.25,-32 192.25,0 300.5,0 300.5,-32"/>
<text xml:space="preserve" text-anchor="start" x="200.25" y="-18.5" font-family="Helvetica,sans-Serif" font-size="10.00">ads1118_temperature</text>
<text xml:space="preserve" text-anchor="middle" x="246.38" y="-6.5" font-family="Helvetica,sans-Serif" font-size="10.00">_convert</text>
</a>
</g>
</g>
<!-- Node1&#45;&gt;Node3 -->
<g id="edge2_Node000001_Node000003" class="edge">
<title>Node1&#45;&gt;Node3</title>
<g id="a_edge2_Node000001_Node000003"><a xlink:title=" ">
<path fill="none" stroke="#63b8ff" d="M156.41,-27.77C164.59,-26.69 172.85,-25.6 180.87,-24.54"/>
<polygon fill="#63b8ff" stroke="#63b8ff" points="181.05,-28.04 190.51,-23.26 180.13,-21.1 181.05,-28.04"/>
</a>
</g>
</g>
</g>
</svg>
